/* XPM */
static char * C:\Users\abuser\Desktop\fedora\logo fedora do zrobienia\IMGPACK\bitcoin64_xpm[] = {
"64 64 64 1",
" 	c None",
".	c #3A4D81",
"+	c #51638F",
"@	c #7080A2",
"#	c #8796B1",
"$	c #7888A7",
"%	c #9EACBF",
"&	c #596A94",
"*	c #96A5BA",
"=	c #68799E",
"-	c #495C8B",
";	c #425486",
">	c #7F8FAC",
",	c #607299",
"'	c #8F9DB5",
")	c #B5C2CD",
"!	c #ADBBC8",
"~	c #535D85",
"{	c #61526A",
"]	c #74545F",
"^	c #C15D31",
"/	c #875653",
"(	c #A6B3C4",
"_	c #AE5B3C",
":	c #D45F25",
"<	c #575070",
"[	c #CA5E2B",
"}	c #B75C36",
"|	c #6A5364",
"1	c #A45942",
"2	c #4D4F76",
"3	c #444E7B",
"4	c #9A5848",
"5	c #5D5E7F",
"6	c #966B69",
"7	c #DF875C",
"8	c #D97340",
"9	c #DC7D4E",
"0	c #91574D",
"a	c #8E91AB",
"b	c #FFFFFF",
"c	c #F2CDBB",
"d	c #FCF5F1",
"e	c #F7E1D6",
"f	c #ECB9A0",
"g	c #E49B77",
"h	c #D76933",
"i	c #E19169",
"j	c #FAEBE4",
"k	c #6B7AA1",
"l	c #EAAF92",
"m	c #F4D7C9",
"n	c #EFC3AD",
"o	c #E7A584",
"p	c #7D5559",
"q	c #CE8F75",
"r	c #C1C7D8",
"s	c #CED3E0",
"t	c #A9B1C8",
"u	c #E0AE98",
"v	c #F3F4F7",
"w	c #536391",
"x	c #A6A7BA",
"y	c #CBC9D2",
"                                                                ",
"                                                                ",
"                                                                ",
"                            ......                              ",
"                        .............                           ",
"                     ......+@#$+.......                         ",
"                     .........+$%#+.....                        ",
"                    .............&#*=....                       ",
"                    ...............-$*&...                      ",
"                    .................;$#;.                      ",
"                    ...................;#=.                     ",
"                   ........................                     ",
"                   ........................                     ",
"                 &.........................                     ",
"               .==..........................                    ",
"               &#..=..........................                  ",
"               >,..*';...........................               ",
"             ..*&..*)!$;...................#.......             ",
"            ...$=..*)))!@;...............;>);.......            ",
"          .....~>..')))))!>=-&....-&&@$#%)))&...{.....          ",
"         ....]^/,..+())))(*@-#*%))))))))))))&...]^]....         ",
"         ..._:::<...;$!))!##,=$*)))))))))))%;....[:}...         ",
"         ...::::[<....;='%#@,>*())))))))))*;....._::...         ",
"         ...:::::[|.......+-.+#!))))))(*$+......._::...         ",
"         ...:::::::12............+&&;............^::...         ",
"         ...::::::::[/3.......................;+]:::...         ",
"         ...::::::::::[/3....................&$<[:::...         ",
"         ..._::::::::::::4{...............;=%$<[:::[...         ",
"         ..._::::::::::::::^4|3.......-,$'*@5/:::::_...         ",
"          ..67777777777:879::8:_0]{3..+.3{/_:79::::4..          ",
"          ..abbbbbbbbbc8dbb7:befg9:::::::hifjbbjg::/..          ",
"          ..kbbbbbbbbbl7bbbl:bbbbbbdmml:ebbbbbbbb7:{..          ",
"          ...bbbbbbbbbn8bbbi:bbbjmdbbbbibbbjcebbc::3..          ",
"          ..._::lbbb7:::9li::bbbl::fbbblbbbo::7ch:}...          ",
"           ..p::lbbb7::9f7o9:bbbl::7bbblbbbbjngh::0..           ",
"           ..2::lbbb7::7bbb7:bbbn7iebbb9ebbbbbbdo:<..           ",
"           ...}:lbbb7::7bbb7:bbbbbbbbbm:hndbbbbbbq...           ",
"           ...]:lbbb7::7bbb7:bbbbbbbbmh:hh:ifjbbbr..            ",
"            ..3[lbbb7::7bbb7:bbbmlll9:::ndgh::bbbs..            ",
"            .../lbbb7::7bbb7:bbbl::::::fbbbbmjbbbt..            ",
"             ..3ubbb7::7bbb7:bbbl::::::fbbbbbbbbvw.             ",
"             ...xbbb7::7bbb7:bbbl:::::::7ndbbbbyw..             ",
"              ..3^:::::::::::::::::::::::::877[3..              ",
"              ...|::::::::::::::::::::::::::::p...              ",
"               ...1::::::::::::::::::::::::::_...               ",
"                ..3[::::::::::::::::::::::::[3..                ",
"                ...<::::::::::::::::::::::::{...                ",
"                 ...]::::::::::::::::::::::p...                 ",
"                  ...0::::::::::::::::::::4...                  ",
"                  ....4::::::::::::::::::4....                  ",
"                   ....4::::::::::::::::4....                   ",
"                    ....p::::::::::::::0....                    ",
"                     ....|[::::::::::[]....                     ",
"                      ....<}::::::::}<....                      ",
"                        ..../::::::03...                        ",
"                         ....<_::_<....                         ",
"                          .....{].....                          ",
"                            ........                            ",
"                              ....                              ",
"                               ..                               ",
"                                                                ",
"                                                                ",
"                                                                ",
"                                                                "};
