/* XPM */
static char * C:\Users\abuser\Desktop\fedora\logo fedora do zrobienia\IMGPACK\bitcoin128_xpm[] = {
"128 128 81 1",
" 	c None",
".	c #3A4D81",
"+	c #607299",
"@	c #7080A2",
"#	c #7888A7",
"$	c #425486",
"%	c #68799E",
"&	c #8F9DB5",
"*	c #A6B3C4",
"=	c #8796B1",
"-	c #495C8B",
";	c #B5C2CD",
">	c #9EACBF",
",	c #7F8FAC",
"'	c #51638F",
")	c #96A5BA",
"!	c #ADBBC8",
"~	c #596A94",
"{	c #444E7B",
"]	c #4D4F76",
"^	c #9A5848",
"/	c #74545F",
"(	c #C15D31",
"_	c #B75C36",
":	c #D45F25",
"<	c #61526A",
"[	c #AE5B3C",
"}	c #7D5559",
"|	c #6A5364",
"1	c #CA5E2B",
"2	c #575070",
"3	c #91574D",
"4	c #875653",
"5	c #A45942",
"6	c #DF875C",
"7	c #DC7D4E",
"8	c #D76933",
"9	c #D97340",
"0	c #6B7AA1",
"a	c #FFFFFF",
"b	c #E49B77",
"c	c #FAEBE4",
"d	c #F4D7C9",
"e	c #F7E1D6",
"f	c #EAAF92",
"g	c #EFC3AD",
"h	c #FCF5F1",
"i	c #F2CDBB",
"j	c #E19169",
"k	c #E4DFE2",
"l	c #E7A584",
"m	c #BFBDCA",
"n	c #909BB8",
"o	c #697093",
"p	c #E0AE98",
"q	c #ECB9A0",
"r	c #7885A8",
"s	c #9DA6C0",
"t	c #8490B0",
"u	c #536391",
"v	c #CED3E0",
"w	c #F3F4F7",
"x	c #5F6E99",
"y	c #D6AD9E",
"z	c #8C6A6E",
"A	c #9D8F46",
"B	c #FFD10A",
"C	c #CEB028",
"D	c #F3C911",
"E	c #B5A037",
"F	c #46557A",
"G	c #C1A82F",
"H	c #E6C119",
"I	c #A9973E",
"J	c #5F666B",
"K	c #DAB820",
"L	c #6B6E63",
"M	c #90874D",
"N	c #78765C",
"O	c #847F54",
"P	c #535E72",
"                                                                                                                                ",
"                                                                                                                                ",
"                                                                                                                                ",
"                                                                                                                                ",
"                                                    .................                                                           ",
"                                                 .......................                                                        ",
"                                           ................................                                                     ",
"                                          ............+@#+$..................                                                   ",
"                                         ...............$%&*=%-...............                                                  ",
"                                         ..................$%&;>,'..............                                                ",
"                                        ......................$%);*#-............                                               ",
"                                        .........................-#*;)+...........                                              ",
"                                       .............................%);*%..........                                             ",
"                                       ...............................-=!*#.........                                            ",
"                                       .................................$@**%........                                           ",
"                                       ....................................%)>~......                                           ",
"                                      .......................................~*&$.....                                          ",
"                                      .........................................@*+....                                          ",
"                                      ..........................................$=)-...                                         ",
"                                      ............................................~>=-.                                         ",
"                                      .................................................                                         ",
"                                     ..................................................                                         ",
"                                     ...................................................                                        ",
"                                   .....................................................                                        ",
"                                 .......................................................                                        ",
"                               ..'-.....................................................                                        ",
"                              ..,%......................................................                                        ",
"                             .$)%........................................................                                       ",
"                            ..=&...........................................................                                     ",
"                           ..+;-.....%........................................................                                  ",
"                           ..>>......;%.........................................................                                ",
"                           .-;,......;;,...........................................................                             ",
"                           .~;#......;;;>'..............................................-$...........                           ",
"                         ...~;#......;;;;;=-............................................#~.............                         ",
"                       .....~;#......;;;;;;;=-.........................................-!%...............                       ",
"                      .......;#......;;;;;;;;;,$......................................->;#................                      ",
"                    .........&)......!;;;;;;;;;;=+..................................-#!;;=..................                    ",
"                  ...........%!......);;;;;;;;;*>=)=+$..........................'+,>;;;;;).......{............                  ",
"                 ...........].*'.....=;;;;;;;;;*;*,~~@%+.'............'%####))*;;;;;;;;;;*........^/...........                 ",
"                ........../(_.~,.....$!;;;;;;;;;&#%,&=+..-~~##=));;;;;;;;;;;;;;;;;;;;;;;;;........]:(/..........                ",
"                ........<[:::}.-......$>;;;;;;;*)&>&%$'+.@~%#######=)>;;;;;;;;;;;;;;;;;;;;.........^::(|........                ",
"                ......{^:::::12.........#!;;;;;*;*,~~##%.~...-~+#,));;;;;;;;;;;;;;;;;;;;;,.........]::::[]......                ",
"                .....21:::::::_{.........-,!;;;;&=@,==+..'~##)>;;;;;;;;;;;;;;;;;;;;;;;;;>..........._:::::2.....                ",
"                .....<:::::::::[...........$%>;>,)!&%$'%$@+#####%#>;;;;;;;;;;;;;;;;;;;;)$...........3:::::4.....                ",
"                .....<::::::::::^{............-%&=%'~##%-'..-~@,)*;;;;;;;;;;;;;;;;;;;;#.............4:::::4.....                ",
"                .....<:::::::::::_{...............'@%+..$~%#)*;*))*;;;;;;;;;;;;;;;;!=-..............4:::::4.....                ",
"                .....<::::::::::::1<......................-~~~~#=);;;;;;;;;;;;;!)#~.................4:::::4.....                ",
"                .....<::::::::::::::3{......................-~%##=)))))))=##+~$.....................3:::::4.....                ",
"                .....<:::::::::::::::(|.............................................................(:::::4.....                ",
"                .....<:::::::::::::::::[]..........................................................<::::::4.....                ",
"                .....<:::::::::::::::::::^{........................................................[::::::4.....                ",
"                .....<::::::::::::::::::::14{..................................................++./:::::::}.....                ",
"                .....<::::::::::::::::::::::14]..............................................$=%.21:::::::<.....                ",
"                .....]:::::::::::::::::::::::::^]...........................................%>%.21::::::::<.....                ",
"                ......:::::::::::::::::::::::::::[/......................................$%**'.21:::::::::<.....                ",
"                ......:::::::::::::::::::::::::::::1^2.................................+=!;#$.|1::::::::::......                ",
"                ......[:::::::::::::::::::::::::::::::(3|..........................-%&!;*,-.{^::::::::::::......                ",
"                ......[::::::::::::::::::::::::::::::::::15/].................$~@=*>),%'..2^1::::::::::::_......                ",
"                ......4::::::::::::::::::::::::::::::::::::::(^/]............+~~~......2}_:::::::::::::::[......                ",
"                ......}::::::::::::::::::::::::::667:::::::::::::1[3}<2...........]<451:::::89:::::::::::4......                ",
"                 .....0aaaaaaaaaaaaaaaaaaaaab::7caaad8:::6ef6::::::::::::([[[[[[1:::::::::6gaahib8:::::::/.....                 ",
"                 .....{aaaaaaaaaaaaaaaaaaaah::8haaaaae:::6aaaadf68::::::::::::::::::::8jgcaaaaaaahf8:::::<.....                 ",
"                 ......kaaaaaaaaaaaaaaaaaaad::laaaaaaa6::6aaaaaaaacdff669:::::::::6fgeaaaaaaaaaaaaac6::::......                 ",
"                 ......maaaaaaaaaaaaaaaaaaaf::faaaaaaal::6aaaaaaaaaaaaaaaaaaag:::jaaaaaaaaaaaaaaaaaag:::_......                 ",
"                 ......naaaaaaaaaaaaaaaaaaai::faaaaaaa6::6aaaaaaaaaaaaaaaaaaaaj::caaaaaaaaaaaaaaaaah8:::3......                 ",
"                  .....oaaaaaaaaaaaaaaaaaaac::9aaaaaah8::6aaaaaaaaaaaaaaaaaaaae:jaaaaaaaaddeaaaaaaa6::::/.....                  ",
"                  ......pffffffdaaaaaacfffff8::baaaah7:::6aaaaaaa6666bdaaaaaaaa9faaaaaah7:::8bdaaaq:::::].....                  ",
"                  ......5::::::faaaaaad:::::::::9ffl9::::6aaaaaaa::::::laaaaaaajfaaaaaae:::::::6ee8::::_......                  ",
"                  ......}::::::faaaaaad::::::::::::::::::6aaaaaaa:::::::haaaaaaffaaaaaaaf8:::::::9:::::3......                  ",
"                  ......]::::::faaaaaad:::::::96:::::b:::6aaaaaaa:::::::daaaaaaffaaaaaaaaadf68:::::::::|......                  ",
"                   ......(:::::faaaaaad:::::::6acgfiha:::6aaaaaaa::::::8aaaaaaab7aaaaaaaaaaaaael9:::::1......                   ",
"                   ......3:::::faaaaaad:::::::6aaaaaaa:::6aaaaaaa::::::gaaaaaaa7:daaaaaaaaaaaaaaag9:::^......                   ",
"                   ......2:::::faaaaaad:::::::6aaaaaaa:::6aaaaaaa6666fcaaaaaaah::9haaaaaaaaaaaaaaahb::|......                   ",
"                    ......(::::faaaaaad:::::::6aaaaaaa:::6aaaaaaaaaaaaaaaaaaaaf:::9daaaaaaaaaaaaaaaa61......                    ",
"                    ......}::::faaaaaad:::::::6aaaaaaa:::6aaaaaaaaaaaaaaaaaaae8:::::6iaaaaaaaaaaaaaac^......                    ",
"                    ......]::::faaaaaad:::::::6aaaaaaa:::6aaaaaaaaaaaaaaaaaah7::::::::8bgcaaaaaaaaaaar......                    ",
"                     ......5:::faaaaaad:::::::6aaaaaaa:::6aaaaaaaaaaaaaaaaai8:::::::::::::9biaaaaaaaas.....                     ",
"                     ......<:::faaaaaad:::::::6aaaaaaa:::6aaaaaaaaaaaaaahg6:::::::bc7::::::::7haaaaaas.....                     ",
"                     .......(::faaaaaad:::::::6aaaaaaa:::6aaaaaaaffffl67:::::::::7haag9:::::::eaaaaaas.....                     ",
"                      ....../::faaaaaad:::::::6aaaaaaa:::6aaaaaaa:::::::::::::::8haaaaaib7::8faaaaaaat....                      ",
"                      .......(:faaaaaad:::::::6aaaaaaa:::6aaaaaaa::::::::::::::8eaaaaaaaaaaaaaaaaaaaau....                      ",
"                       ......4:faaaaaad:::::::6aaaaaaa:::6aaaaaaa::::::::::::::gaaaaaaaaaaaaaaaaaaaav....                       ",
"                       ......{1faaaaaad:::::::6aaaaaaa:::6aaaaaaa::::::::::::::7caaaaaaaaaaaaaaaaaawu....                       ",
"                        ......}faaaaaad:::::::6aaaaaaa:::6aaaaaaa:::::::::::::::8qaaaaaaaaaaaaaaaawx....                        ",
"                        .......yaaaaaad:::::::6aaaaaaa:::6aaaaaaa:::::::::::::::::9ghaaaaaaaaaaaavu.....                        ",
"                         ......tddddddq:::::::7ddddddd:::7ddddddd::::::::::::::::::::jqdhaaaaadfz......                         ",
"                         .......[::::::::::::::::::::::::::::::::::::::::::::::::::::::::::::::(.......                         ",
"                          ......2::::::::::::::::::::::::::::::::::::::::::::::::::::::::::::::<......                          ",
"                          .......3::::::::::::::::::::::::::::::::::::::::::::::::::::::::::::5.......                          ",
"                           ..........................................................................                           ",
"                           ..........................................................................                           ",
"                            ........................................................................                            ",
"                             ........ABBBCABBBCABBDEFFGBBCFABBHI..GBI..IBBCJKBBI..LBAABMLBA........                             ",
"                             ........ABKCIABKCIABHDBIIBDHBIABKDBN.DBK.OBBKAGBHDBO.LBAABHLBA........                             ",
"                              .......ABL..ABL..ABAPBCCBJJBCABLMBAPBBB.ABO..BBFOBA.LBAABBABA.......                              ",
"                               ......ABMLJABEAOABA.BCCB..BCABLABMOBDBLABL..BC.LBA.LBAABBHBA......                               ",
"                               ......ABBBCABBBCABA.BCCB..BCABBBBPIBGBAABL..BC.LBG.LBAABHBBA......                               ",
"                                .....ABEAOABMLJABA.BCCB..BCABHBI.KBMBGABL..BK.LBI.LBAABABBA.....                                ",
"                                 ....ABL..ABL..ABALBCCBNLBCABOBKFBBBBDABA.PDBFABIONBAABFBBA....                                 ",
"                                  ...ABL..ABBBCABBBBAMBBBBAABLHBOBCAHBMBBBEEBBBBABGBAAB.EBA...                                  ",
"                                  ...OCJ..OCCCIOCCCM..ACCA.OCJMCECN.MCLNCCEFECCN.LLCOOC.LCO...                                  ",
"                                   ..........................................................                                   ",
"                                    ........................................................                                    ",
"                                     .........<<<<<<<<<<<<<<<<<<<<<<<<<<<<<<<<<<<<.........                                     ",
"                                      ........|1:::::::::::::::::::::::::::::::::/........                                      ",
"                                       ........21::::::::::::::::::::::::::::::1/........                                       ",
"                                        ........2_::::::::::::::::::::::::::::12........                                        ",
"                                         ........{[::::::::::::::::::::::::::_]........                                         ",
"                                          .........3::::::::::::::::::::::::^{........                                          ",
"                                           .........|1::::::::::::::::::::1/.........                                           ",
"                                            .........][::::::::::::::::::_2.........                                            ",
"                                             ..........4::::::::::::::::3{.........                                             ",
"                                               .........2_::::::::::::(<.........                                               ",
"                                                ..........}1:::::::::4..........                                                ",
"                                                 ..........{^::::::[]..........                                                 ",
"                                                   ..........2[::_<..........                                                   ",
"                                                    ...........</...........                                                    ",
"                                                     ......................                                                     ",
"                                                       ..................                                                       ",
"                                                         ..............                                                         ",
"                                                          ............                                                          ",
"                                                            ........                                                            ",
"                                                              ....                                                              ",
"                                                                                                                                ",
"                                                                                                                                ",
"                                                                                                                                ",
"                                                                                                                                ",
"                                                                                                                                "};
