/* XPM */
static char * C:\Users\abuser\Desktop\fedora\logo fedora do zrobienia\IMGPACK\bitcoin32_xpm[] = {
"32 32 272 2",
"  	c None",
". 	c #35487E",
"+ 	c #34477D",
"@ 	c #374A7F",
"# 	c #3A4D81",
"$ 	c #394C80",
"% 	c #4B5E8D",
"& 	c #7384A5",
"* 	c #8897B1",
"= 	c #50628E",
"- 	c #31447B",
"; 	c #384B80",
"> 	c #3C4E82",
", 	c #7080A3",
"' 	c #9BA9BD",
") 	c #6F80A3",
"! 	c #30447B",
"~ 	c #5A6B95",
"{ 	c #92A2B8",
"] 	c #536590",
"^ 	c #364A7F",
"/ 	c #32467C",
"( 	c #566892",
"_ 	c #7787A7",
": 	c #31457C",
"< 	c #5B6C95",
"[ 	c #7686A6",
"} 	c #61739A",
"| 	c #384A80",
"1 	c #33467D",
"2 	c #7B8BAA",
"3 	c #526390",
"4 	c #7989A7",
"5 	c #C0CDD4",
"6 	c #7888A7",
"7 	c #2A3E77",
"8 	c #32457C",
"9 	c #33477D",
"0 	c #2B3F78",
"a 	c #394C81",
"b 	c #384D82",
"c 	c #374D83",
"d 	c #2A4988",
"e 	c #555B81",
"f 	c #6A7FA5",
"g 	c #6F7FA1",
"h 	c #C3CFD6",
"i 	c #BECAD2",
"j 	c #B9C7D0",
"k 	c #8A99B3",
"l 	c #65769C",
"m 	c #52638F",
"n 	c #51628F",
"o 	c #7F8FAC",
"p 	c #A5B3C4",
"q 	c #C9D5DA",
"r 	c #576892",
"s 	c #344B82",
"t 	c #685366",
"u 	c #2D4B89",
"v 	c #2E4C88",
"w 	c #D96023",
"x 	c #DF5E1B",
"y 	c #36518A",
"z 	c #29417C",
"A 	c #7A8AA8",
"B 	c #BBC9D1",
"C 	c #C1CDD4",
"D 	c #C3D0D6",
"E 	c #A5B3C3",
"F 	c #C4D0D6",
"G 	c #C0CCD4",
"H 	c #BDCAD2",
"I 	c #BFCBD3",
"J 	c #BFCCD3",
"K 	c #425586",
"L 	c #334B83",
"M 	c #77545E",
"N 	c #E1611E",
"O 	c #2D4C89",
"P 	c #294B8B",
"Q 	c #E6611A",
"R 	c #D95F22",
"S 	c #C25D2F",
"T 	c #484D77",
"U 	c #294683",
"V 	c #2A407A",
"W 	c #536490",
"X 	c #7181A2",
"Y 	c #62749B",
"Z 	c #9FAEC0",
"` 	c #B0BCCA",
" .	c #C5D2D7",
"..	c #9AA9BD",
"+.	c #9FADBF",
"@.	c #7989A8",
"#.	c #405386",
"$.	c #324A83",
"%.	c #535072",
"&.	c #F16214",
"*.	c #E5611B",
"=.	c #D45F26",
"-.	c #D86023",
";.	c #E6611B",
">.	c #865654",
",.	c #334C85",
"'.	c #2D4986",
").	c #314880",
"!.	c #2E4279",
"~.	c #2E4179",
"{.	c #2F437A",
"].	c #30457C",
"^.	c #5371A2",
"/.	c #9A5646",
"(.	c #EB6217",
"_.	c #3B4D81",
":.	c #294A89",
"<.	c #E55C12",
"[.	c #D1571A",
"}.	c #D15619",
"|.	c #D35718",
"1.	c #DB5815",
"2.	c #D75A1A",
"3.	c #9E523C",
"4.	c #494971",
"5.	c #294886",
"6.	c #2F4A85",
"7.	c #364D85",
"8.	c #364C84",
"9.	c #324981",
"0.	c #435B8E",
"a.	c #7388AC",
"b.	c #8AA4C2",
"c.	c #7A5257",
"d.	c #E7611A",
"e.	c #2A4581",
"f.	c #E0A081",
"g.	c #EDB294",
"h.	c #EAAF92",
"i.	c #EBB398",
"j.	c #DE7E4E",
"k.	c #EFA985",
"l.	c #EE905D",
"m.	c #D57749",
"n.	c #A47064",
"o.	c #764241",
"p.	c #53435D",
"q.	c #877682",
"r.	c #756574",
"s.	c #925B51",
"t.	c #CA917C",
"u.	c #ED9B71",
"v.	c #D35110",
"w.	c #CD5C27",
"x.	c #2B4B8A",
"y.	c #2C437B",
"z.	c #CEDCF0",
"A.	c #FFFFFF",
"B.	c #F0C7B2",
"C.	c #F7E4DC",
"D.	c #EBAB8B",
"E.	c #FFE7D5",
"F.	c #FFE7D6",
"G.	c #EA8C5C",
"H.	c #FFEEE0",
"I.	c #F9D8C7",
"J.	c #B6552D",
"K.	c #2E4C89",
"L.	c #324880",
"M.	c #80636C",
"N.	c #E57942",
"O.	c #F8E5DB",
"P.	c #E49A75",
"Q.	c #D76933",
"R.	c #E8A888",
"S.	c #E49973",
"T.	c #E7A585",
"U.	c #E29169",
"V.	c #E6A17F",
"W.	c #FDF9F6",
"X.	c #E08A5F",
"Y.	c #EEC2AB",
"Z.	c #DD6324",
"`.	c #86514C",
" +	c #324C86",
".+	c #384C82",
"++	c #3E4C7D",
"@+	c #E05105",
"#+	c #F6DFD4",
"$+	c #DB7949",
"%+	c #DC7D4E",
"&+	c #F5DDD1",
"*+	c #E7A382",
"=+	c #ECB9A0",
"-+	c #F1C8B4",
";+	c #F3D5C6",
">+	c #F09768",
",+	c #49476D",
"'+	c #2C4C8A",
")+	c #C0501C",
"!+	c #FAE0D3",
"~+	c #DC7B4B",
"{+	c #F4D7C9",
"]+	c #E7A280",
"^+	c #D5652D",
"/+	c #E08C62",
"(+	c #DE8457",
"_+	c #F0C5B0",
":+	c #243D78",
"<+	c #344D85",
"[+	c #6C4751",
"}+	c #FFE4D2",
"|+	c #DC7C4D",
"1+	c #F5DACE",
"2+	c #E7A584",
"3+	c #DA7543",
"4+	c #CF4B0A",
"5+	c #D04E0E",
"6+	c #E19067",
"7+	c #F2D1C1",
"8+	c #27427F",
"9+	c #EDC5B2",
"0+	c #FDECE3",
"a+	c #DA7746",
"b+	c #FAECE5",
"c+	c #EEC0A9",
"d+	c #E39771",
"e+	c #FAEFEA",
"f+	c #DB7A4A",
"g+	c #D35D22",
"h+	c #D45E24",
"i+	c #D56027",
"j+	c #EEC1AB",
"k+	c #FBEFE8",
"l+	c #FFE6D8",
"m+	c #506293",
"n+	c #344A81",
"o+	c #544865",
"p+	c #E1560D",
"q+	c #D45A1D",
"r+	c #D35A1E",
"s+	c #D15416",
"t+	c #D15517",
"u+	c #D25619",
"v+	c #D35A1F",
"w+	c #D45F25",
"x+	c #D15111",
"y+	c #DE5107",
"z+	c #5E4659",
"A+	c #2F4C88",
"B+	c #94584B",
"C+	c #DD6020",
"D+	c #DD6021",
"E+	c #A05946",
"F+	c #394D82",
"G+	c #284B8C",
"H+	c #C65E2D",
"I+	c #DB6021",
"J+	c #C55E2D",
"K+	c #354C84",
"L+	c #C45E2E",
"M+	c #364D83",
"N+	c #DD601F",
"O+	c #D55F24",
"P+	c #D55F25",
"Q+	c #DC6020",
"R+	c #94574B",
"S+	c #E4611C",
"T+	c #D85F23",
"U+	c #E3611C",
"V+	c #A05945",
"W+	c #565171",
"                                                                ",
"                            . + @                               ",
"                    # # $ % & * = - . $                         ",
"                    # # # ; . > , ' ) - @                       ",
"                    # # # # # $ . ! ~ { ]                       ",
"                    # # # # # # # # ^ / ( ;                     ",
"                _ : $ # # # # # # # # # $ #                     ",
"              < [ } | 1 $ # # # # # # # $ @ $                   ",
"              2 3 4 5 6 7 8 . @ ^ . 9 8 0 6 : a b               ",
"          c d e f g h i j k l m n g 6 o p q r s t u c           ",
"        # v w x y z A B C D E F G H i i I J K L M N O #         ",
"          P Q R S T U V W X Y Z `  ...+.@.#.. $.%.&.P           ",
"          P *.=.-.;.>.,.'.).+ - !.~.{.- 8 / ].^./.(.P           ",
"        _.:.<.[.}.|.1.2.3.4.5.6.,.7.8.9.0.a.b.c.x d.P _.        ",
"          e.f.g.h.h.i.j.k.l.m.n.o.p.p.q.r.s.t.u.v.w.x.          ",
"          y.z.A.A.A.A.B.A.C.D.A.A.E.F.G.H.A.A.A.I.J.K.          ",
"          L.M.N.O.A.P.Q.R.S.T.A.U.V.A.A.A.W.X.Y.Z.`. +          ",
"          .+++@+#+A.$+%+A.&+*+A.=+-+A.;+A.A.A.A.>+,+c           ",
"            '+)+!+A.~+~+A.{+]+A.A.A.A.^+/+(+_+A.A.:+            ",
"            <+[+}+A.|+|+A.1+2+A.3+4+5+6+A.A.7+A.A.7             ",
"              8+9+0+a+a+b+c+d+e+f+g+h+i+j+k+A.l+m+              ",
"              n+o+p+q+r+s+t+u+t+v+h+w+g+}.x+y+z+).              ",
"                A+B+C+w+=.w+w+w+w+w+w+w+w+D+E+O                 ",
"                F+G+H+I+w+w+w+w+w+w+w+w+I+J+K+b                 ",
"                  c ,.L+I+w+w+w+w+w+w+I+L+,.M+                  ",
"                    M+,.H+N+O+w+w+P+Q+J+,.M+                    ",
"                      c G+R+S+T+T+U+V+K+M+                      ",
"                        F+A+W+=.=.W+v b                         ",
"                            K+u u K+                            ",
"                              # #                               ",
"                                                                ",
"                                                                "};
