/* XPM */
static char * C:\Users\abuser\Desktop\fedora\logo fedora do zrobienia\IMGPACK\bitcoin16_xpm[] = {
"16 16 69 1",
" 	c None",
".	c #455888",
"+	c #5F6F97",
"@	c #32457C",
"#	c #3A4D81",
"$	c #374A7F",
"%	c #536590",
"&	c #7D8CAA",
"*	c #445788",
"=	c #34477D",
"-	c #374B7F",
";	c #3E5083",
">	c #627299",
",	c #68799E",
"'	c #61739A",
")	c #2E4179",
"!	c #35497E",
"~	c #32467C",
"{	c #574F6E",
"]	c #555071",
"^	c #868EA5",
"/	c #7B8BA9",
"(	c #BCC8D2",
"_	c #6E7FA1",
":	c #51638F",
"<	c #526390",
"[	c #50628F",
"}	c #7181A3",
"|	c #8B99B3",
"1	c #7D5457",
"2	c #94584B",
"3	c #AF6043",
"4	c #3F5385",
"5	c #919FB7",
"6	c #AEBBC9",
"7	c #C2CFD5",
"8	c #CBD7DB",
"9	c #C4D1D6",
"0	c #5E7098",
"a	c #33477D",
"b	c #895652",
"c	c #D45F25",
"d	c #C35D2F",
"e	c #4F4A6D",
"f	c #2F427A",
"g	c #2B3F78",
"h	c #556691",
"i	c #3C5083",
"j	c #253974",
"k	c #576893",
"l	c #706377",
"m	c #6C5363",
"n	c #D66730",
"o	c #C4643C",
"p	c #986055",
"q	c #695970",
"r	c #645E79",
"s	c #968E99",
"t	c #B57A63",
"u	c #D35F25",
"v	c #FFFFFF",
"w	c #B05B3B",
"x	c #705361",
"y	c #9E5945",
"z	c #5F516B",
"A	c #B45B38",
"B	c #6E5362",
"C	c #AD5A3C",
"D	c #92574D",
"      .+@       ",
"     #$%&&*     ",
"    =##-=;>     ",
"   ,')=$$!~{#   ",
"  ]^/(_:<[}|1]  ",
" #2345678890a2# ",
" #bcdefghijklb# ",
"  mccnopqrstcm  ",
"  #ucvvvvvvcu#  ",
"  #wcccvvcccw#  ",
"   xcccvvcccx   ",
"   #yccvvccy#   ",
"    zAcvvcAz    ",
"     BCccCB     ",
"      #DD#      ",
"       ##       "};
